<?xml version="1.0" encoding="UTF-8"?>
<svg id="Layer_2" data-name="Layer 2" xmlns="http://www.w3.org/2000/svg" viewBox="0 0 32 32">
  <defs>
    <style>
      .cls-1 {
        fill: #582b79;
      }

      .cls-2 {
        fill: #d72129;
      }

      .cls-3 {
        fill: #fff;
      }
    </style>
  </defs>
  <g id="Layer_1-2" data-name="Layer 1">
    <g>
      <rect class="cls-3" width="32" height="32"/>
      <g>
        <path class="cls-2" d="M6.34,11.11c-2.4,0-4.34,1.94-4.34,4.34h0v9.02h2.33v-5.17c.6.32,1.29.49,2.01.49,2.4,0,4.34-1.94,4.34-4.34s-1.94-4.34-4.34-4.34ZM6.34,17.47c-1.11,0-2.01-.9-2.01-2.01s.9-2.01,2.01-2.01,2.01.9,2.01,2.01-.9,2.01-2.01,2.01Z"/>
        <path class="cls-1" d="M16.08,10.02c2.35,0,4.26,1.91,4.26,4.26s-1.91,4.26-4.26,4.26-4.26-1.91-4.26-4.26,1.91-4.26,4.26-4.26M16.08,7.53c-3.73,0-6.75,3.02-6.75,6.75s3.02,6.75,6.75,6.75,6.75-3.02,6.75-6.75-3.02-6.75-6.75-6.75h0Z"/>
        <path class="cls-2" d="M25.66,11.11c-2.4,0-4.34,1.94-4.34,4.34h0v9.02h2.33v-5.17c.6.32,1.29.49,2.01.49,2.4,0,4.34-1.94,4.34-4.34s-1.94-4.34-4.34-4.34ZM25.66,17.47c-1.11,0-2.01-.9-2.01-2.01s.9-2.01,2.01-2.01,2.01.9,2.01,2.01-.9,2.01-2.01,2.01Z"/>
      </g>
    </g>
  </g>
</svg>