<?xml version="1.0" encoding="UTF-8"?>
<svg id="Layer_2" data-name="Layer 2" xmlns="http://www.w3.org/2000/svg" viewBox="0 0 257.38 101.78">
  <defs>
    <style>
      .cls-1 {
        fill: #582b79;
      }

      .cls-2 {
        fill: #231f20;
      }

      .cls-3 {
        fill: #d72129;
      }
    </style>
  </defs>
  <g id="Layer_1-2" data-name="Layer 1">
    <g>
      <path class="cls-3" d="M26.09,21.53C11.68,21.53,0,33.21,0,47.62h0v54.16h14v-31.04c3.61,1.89,7.73,2.97,12.09,2.97,14.41,0,26.09-11.68,26.09-26.09s-11.68-26.09-26.09-26.09ZM26.09,59.71c-6.67,0-12.09-5.42-12.09-12.09s5.42-12.09,12.09-12.09,12.09,5.42,12.09,12.09-5.42,12.09-12.09,12.09Z"/>
      <path class="cls-1" d="M84.55,15c14.09,0,25.56,11.47,25.56,25.56s-11.47,25.56-25.56,25.56-25.56-11.47-25.56-25.56,11.47-25.56,25.56-25.56M84.55,0c-22.4,0-40.56,18.16-40.56,40.56s18.16,40.56,40.56,40.56,40.56-18.16,40.56-40.56S106.95,0,84.55,0h0Z"/>
      <path class="cls-3" d="M142.09,21.53c-14.41,0-26.09,11.68-26.09,26.09h0v54.16h14v-31.04c3.61,1.89,7.73,2.97,12.09,2.97,14.41,0,26.09-11.68,26.09-26.09s-11.68-26.09-26.09-26.09ZM142.09,59.71c-6.67,0-12.09-5.42-12.09-12.09s5.42-12.09,12.09-12.09,12.09,5.42,12.09,12.09-5.42,12.09-12.09,12.09Z"/>
      <g>
        <path class="cls-2" d="M147.49,98.05h-7.13l-1.56,3.55h-.97l5.66-12.6h.9l5.66,12.6h-.97l-1.58-3.55ZM147.15,97.27l-3.23-7.27-3.21,7.27h6.45Z"/>
        <path class="cls-2" d="M152.27,88.99h4.87c3.9,0,6.53,2.63,6.53,6.3s-2.63,6.3-6.53,6.3h-4.87v-12.6ZM157.06,100.77c3.48,0,5.71-2.27,5.71-5.47s-2.23-5.47-5.71-5.47h-3.9v10.95h3.9Z"/>
        <path class="cls-2" d="M176.23,88.99l-5.48,12.6h-.9l-5.48-12.6h.98l4.97,11.42,4.97-11.42h.93Z"/>
        <path class="cls-2" d="M186.7,100.77v.83h-8.48v-12.6h8.22v.83h-7.32v4.97h6.55v.81h-6.55v5.17h7.59Z"/>
        <path class="cls-2" d="M198.5,101.59l-2.93-4.21c-.39.05-.77.09-1.19.09h-3.51v4.12h-.9v-12.6h4.41c3.09,0,4.95,1.58,4.95,4.25,0,2-1.05,3.38-2.88,3.94l3.07,4.41h-1.02ZM194.37,96.66c2.63,0,4.04-1.26,4.04-3.42s-1.4-3.42-4.04-3.42h-3.51v6.84h3.51Z"/>
        <path class="cls-2" d="M204.79,89.82h-4.43v-.83h9.75v.83h-4.43v11.78h-.9v-11.78Z"/>
        <path class="cls-2" d="M212.33,88.99h.9v12.6h-.9v-12.6Z"/>
        <path class="cls-2" d="M216.26,99.97l.4-.68c.84.9,2.41,1.58,4.06,1.58,2.46,0,3.55-1.1,3.55-2.47,0-3.78-7.67-1.51-7.67-6.16,0-1.78,1.33-3.35,4.36-3.35,1.35,0,2.76.43,3.71,1.13l-.33.74c-1.02-.72-2.27-1.06-3.37-1.06-2.39,0-3.46,1.13-3.46,2.52,0,3.78,7.68,1.55,7.68,6.12,0,1.78-1.39,3.33-4.43,3.33-1.83,0-3.58-.7-4.48-1.71Z"/>
        <path class="cls-2" d="M228.21,88.99h.9v12.6h-.9v-12.6Z"/>
        <path class="cls-2" d="M243.4,88.99v12.6h-.74l-8.38-10.95v10.95h-.9v-12.6h.76l8.36,10.95v-10.95h.9Z"/>
        <path class="cls-2" d="M256.47,95.35h.86v4.72c-1.11,1.08-2.7,1.62-4.39,1.62-3.71,0-6.43-2.72-6.43-6.39s2.72-6.39,6.45-6.39c1.77,0,3.34.58,4.43,1.73l-.56.61c-1.07-1.08-2.35-1.49-3.85-1.49-3.2,0-5.57,2.38-5.57,5.55s2.37,5.55,5.57,5.55c1.3,0,2.49-.32,3.5-1.15v-4.34Z"/>
      </g>
      <rect class="cls-2" x="253" y="95.34" width="4.32" height=".81"/>
    </g>
  </g>
</svg>